# xmcd CD database file
#
# Track frame offsets:
#	150
#	23668
#	29240
#	56311
#	86340
#	113522
#	147776
#	175795
#	206336
#	222660
#	229201
#	246887
#	266355
#
# Disc length: 3832 seconds
#
# Revision: 0
# Processed by: cddbd v1.5.2PL0 Copyright (c) Steve Scherf et al.
# Submitted via: CDex 1.70beta2
#
DISCID=ad0ef60d
DTITLE=Nicolas Letman-Burtinovic - BombX
DYEAR=2008
DGENRE=Jazz
TTITLE0=L'hotel du cul tourné
TTITLE1=F(orces) of E(vil)
TTITLE2=Puppet power
TTITLE3=Master of Ashes
TTITLE4=Gargamel
TTITLE5=Clara
TTITLE6=Puno
TTITLE7=Gonake
TTITLE8=BombX
TTITLE9=Melow D
TTITLE10=Atomic Itch
TTITLE11=Wichita
TTITLE12=Sidonie
EXTD=YEAR: 2008
EXTT0=
EXTT1=
EXTT2=
EXTT3=
EXTT4=
EXTT5=
EXTT6=
EXTT7=
EXTT8=
EXTT9=
EXTT10=
EXTT11=
EXTT12=
PLAYORDER=
